<svg width="32" height="32" xmlns="http://www.w3.org/2000/svg">

 <g>
  <title>background</title>
  <rect fill="none" id="canvas_background" height="75" width="268" y="-1" x="-1"/>
 </g>
 <g>
  <title>Layer 1</title>
  <path id="svg_1" fill="#393939" d="m15.9988,29.331c-1.0253,0 -2.0493,-0.3893 -2.832,-1.1667l-0.9733,-0.9733c-0.3774,-0.376 -0.8827,-0.584 -1.4187,-0.5853l-1.36934,0c-2.21334,0 -4.01467,-1.8014 -4.01467,-4.0147l0,-1.3707c-0.00133,-0.5346 -0.20933,-1.04 -0.58667,-1.42l-0.95733,-0.956c-1.568,-1.5586 -1.57467,-4.1066 -0.01467,-5.676l0.97334,-0.9746c0.376,-0.3774 0.584,-0.8827 0.58533,-1.4187l0,-1.36801c0,-2.21467 1.80133,-4.016 4.01467,-4.016l1.37064,0c0.5347,0 1.0387,-0.208 1.4187,-0.588l0.9587,-0.956c1.5586,-1.568 4.1053,-1.576 5.676,-0.01467l0.9733,0.97333c0.3787,0.37734 0.8827,0.58534 1.4173,0.58534l1.3707,0c2.2133,0 4.0147,1.80133 4.0147,4.016l0,1.36931c0.0013,0.5347 0.2093,1.04 0.5866,1.42l0.9574,0.9574c0.7586,0.7546 1.1786,1.76 1.1826,2.8333c0.0027,1.0667 -0.408,2.0707 -1.156,2.8293c-0.0133,0.0134 -0.0253,0.028 -0.0386,0.04l-0.9467,0.9467c-0.376,0.3773 -0.584,0.8827 -0.5853,1.4187l0,1.3693c0,2.2133 -1.8014,4.0147 -4.0147,4.0147l-1.3707,0c-0.5346,0.0013 -1.04,0.2093 -1.4186,0.5866l-0.9587,0.9574c-0.7813,0.7866 -1.8133,1.1813 -2.844,1.1813" opacity="0.4"/>
  <path id="svg_2" fill="#dfeb6a" d="m13.3904,13.4012c-0.22,0.22 -0.5053,0.3387 -0.8213,0.3387c-0.296,0 -0.5867,-0.1213 -0.82,-0.34c-0.2214,-0.22 -0.3467,-0.5213 -0.3467,-0.8267c0,-0.2906 0.1227,-0.5893 0.3387,-0.82c0.1186,-0.12 0.26,-0.2106 0.4013,-0.2586c0.4027,-0.184 0.9373,-0.076 1.2547,0.2573c0.1133,0.1133 0.2,0.2373 0.2573,0.3667c0.0627,0.1386 0.0947,0.296 0.0947,0.4546c0,0.3174 -0.1267,0.612 -0.3587,0.828zm6.8636,-1.6548c-0.4547,-0.4533 -1.1947,-0.4533 -1.6493,0l-6.8534,6.8534c-0.4546,0.4546 -0.4546,1.1946 0,1.6506c0.2214,0.22 0.5134,0.3414 0.8254,0.3414c0.312,0 0.604,-0.1214 0.824,-0.3414l6.8533,-6.8533c0.4547,-0.456 0.4547,-1.1947 0,-1.6507zm-0.3796,6.6055c-0.432,-0.1813 -0.944,-0.0827 -1.2853,0.2587c-0.0707,0.0826 -0.1707,0.2106 -0.2387,0.3613c-0.072,0.1627 -0.0813,0.3373 -0.0813,0.4547c0,0.1173 0.0093,0.2906 0.0813,0.4533c0.0667,0.1493 0.1467,0.2707 0.252,0.376c0.2413,0.224 0.5213,0.3373 0.8333,0.3373c0.296,0 0.5867,-0.12 0.8254,-0.3426c0.212,-0.212 0.328,-0.5054 0.328,-0.824c0,-0.32 -0.116,-0.612 -0.3294,-0.8254c-0.1173,-0.116 -0.2586,-0.2066 -0.3853,-0.2493z" clip-rule="evenodd" fill-rule="evenodd"/>
 </g>
</svg>