<svg width="28" height="32" xmlns="http://www.w3.org/2000/svg">

 <g>
  <title>background</title>
  <rect fill="none" id="canvas_background" height="402" width="582" y="-1" x="-1"/>
 </g>
 <g>
  <title>Layer 1</title>
  <path id="svg_1" fill="#dfeb6a" d="m13.5649,31.8619c0.1772,0.0925 0.3753,0.1396 0.5735,0.138c0.1981,-0.0015 0.3946,-0.0502 0.5734,-0.1443l5.7086,-3.0517c1.6188,-0.8629 2.8865,-1.8278 3.8755,-2.9512c2.1504,-2.4476 3.3247,-5.5714 3.3038,-8.7925l-0.0677,-10.62503c-0.0064,-1.22379 -0.8102,-2.31579 -1.999,-2.71274l-10.6199,-3.563127c-0.6394,-0.216518 -1.3401,-0.211811 -1.9683,0.010983l-10.57964,3.690214c-1.18232,0.41264 -1.971601,1.51248 -1.965157,2.73784l0.067652,10.61716c0.02094,3.2258 1.235465,6.3355 3.421295,8.758c0.99869,1.1077 2.27765,2.0585 3.9142,2.9073l5.76175,2.9811zm-1.5112,-12.4876c0.2384,0.2291 0.5477,0.342 0.8569,0.3389c0.3093,-0.0016 0.617,-0.1177 0.8521,-0.3499l6.2386,-6.1503c0.4687,-0.4629 0.4639,-1.2066 -0.0097,-1.6632c-0.4752,-0.4565 -1.2403,-0.4534 -1.709,0.0095l-5.3897,5.3125l-2.2068,-2.1213c-0.4751,-0.4565 -1.23865,-0.4518 -1.709,0.011c-0.46873,0.4629 -0.4639,1.2066 0.01128,1.6631l3.06532,2.9497z" clip-rule="evenodd" fill-rule="evenodd"/>
 </g>
</svg>