<svg width="266" height="73" xmlns="http://www.w3.org/2000/svg">
 <g>
  <title>background</title>
  <rect x="-1" y="-1" width="268" height="75" id="canvas_background" fill="none"/>
 </g>

 <g>
  <title>Layer 1</title>
  <path d="m96.5723,43.137c1.731,0.3516 3.111,1.1767 4.139,2.4751c1.055,1.2714 1.582,2.7727 1.582,4.504c0,2.4075 -0.811,4.3146 -2.434,5.7212c-1.596,1.3796 -3.923,2.0694 -6.979,2.0694l-12.295,0l0,-28.6468l12.051,0c2.895,0 5.113,0.6357 6.655,1.9071c1.569,1.2714 2.353,3.0567 2.353,5.356c0,1.7854 -0.473,3.2461 -1.42,4.3823c-0.92,1.1361 -2.137,1.88 -3.652,2.2317zm-10.266,-1.8665l5.153,0c1.434,0 2.516,-0.3111 3.247,-0.9333c0.757,-0.6492 1.136,-1.5689 1.136,-2.7592c0,-1.1902 -0.366,-2.1099 -1.096,-2.7592c-0.73,-0.6492 -1.853,-0.9738 -3.368,-0.9738l-5.072,0l0,7.4255zm5.437,11.97c1.515,0 2.678,-0.3246 3.49,-0.9739c0.812,-0.6762 1.217,-1.6501 1.217,-2.9215c0,-1.2713 -0.419,-2.2452 -1.258,-2.9214c-0.811,-0.7034 -1.974,-1.055 -3.489,-1.055l-5.397,0l0,7.8718l5.437,0zm23.364,-18.0971c1.893,0 3.516,0.4464 4.869,1.3391c1.353,0.8926 2.313,2.0964 2.881,3.6113l0,-4.6663l5.681,0l0,22.4792l-5.681,0l0,-4.7068c-0.568,1.5148 -1.528,2.7321 -2.881,3.6519c-1.353,0.8926 -2.976,1.339 -4.869,1.339c-1.894,0 -3.598,-0.4599 -5.113,-1.3796c-1.515,-0.9197 -2.705,-2.2452 -3.571,-3.9765c-0.838,-1.7583 -1.257,-3.8142 -1.257,-6.1676c0,-2.3534 0.419,-4.3958 1.257,-6.127c0.866,-1.7583 2.056,-3.0973 3.571,-4.0171c1.515,-0.9197 3.219,-1.3796 5.113,-1.3796zm1.785,4.9909c-1.785,0 -3.219,0.5816 -4.301,1.7448c-1.082,1.1632 -1.623,2.7592 -1.623,4.788c0,2.0288 0.541,3.6248 1.623,4.788c1.082,1.1361 2.516,1.7042 4.301,1.7042c1.731,0 3.152,-0.5816 4.261,-1.7448c1.136,-1.1902 1.704,-2.7727 1.704,-4.7474c0,-2.0018 -0.568,-3.5842 -1.704,-4.7474c-1.109,-1.1903 -2.53,-1.7854 -4.261,-1.7854zm30.221,-5.0314c2.596,0 4.666,0.8521 6.208,2.5563c1.542,1.7042 2.313,4.0982 2.313,7.182l0,13.0655l-5.681,0l0,-12.4163c0,-1.7854 -0.46,-3.165 -1.38,-4.1388c-0.919,-1.0009 -2.177,-1.5013 -3.773,-1.5013c-1.623,0 -2.922,0.5275 -3.896,1.5825c-0.973,1.055 -1.46,2.5698 -1.46,4.5445l0,11.9294l-5.722,0l0,-22.4792l5.722,0l0,4.5039c0.595,-1.5148 1.569,-2.6915 2.921,-3.5301c1.38,-0.8656 2.962,-1.2984 4.748,-1.2984zm26.701,22.8038l-7.425,-9.8194l0,9.8194l-5.721,0l0,-30.0264l5.721,0l0,16.8797l7.385,-9.3325l6.776,0l-9.454,11.199l9.697,11.2802l-6.979,0z" fill="#dfeb6a" id="svg_2"/>
  <path d="m36.0678,0c-7.1335,0 -14.1069,2.11534 -20.0382,6.07852c-5.9313,3.96318 -10.55421,9.59618 -13.2841,16.18668c-2.72989,6.5906 -3.44415,13.8426 -2.05247,20.8391c1.39168,6.9964 4.82681,13.4231 9.87097,18.4673c5.0442,5.0441 11.4708,8.4793 18.4673,9.871c6.9965,1.3916 14.2485,0.6774 20.839,-2.0525c6.5906,-2.7299 12.2236,-7.3528 16.1868,-13.2841c3.9631,-5.9313 6.0785,-12.9047 6.0785,-20.0382l-18.0339,0c0,3.5668 -1.0577,7.0534 -3.0393,10.0191c-1.9816,2.9657 -4.7981,5.2771 -8.0933,6.642c-3.2953,1.365 -6.9213,1.7221 -10.4195,1.0263c-3.4983,-0.6959 -6.7116,-2.4134 -9.2337,-4.9355c-2.5221,-2.5221 -4.2396,-5.7354 -4.9355,-9.2337c-0.6958,-3.4982 -0.3387,-7.1242 1.0262,-10.4195c1.365,-3.2952 3.6764,-6.1118 6.6421,-8.0933c2.9657,-1.9816 6.4523,-3.0393 10.0191,-3.0393l0,-18.0339z" fill="white" id="svg_3"/>
  <path d="m36.0678,0c-4.7365,0 -9.4266,0.93292 -13.8026,2.7455c-4.3759,1.81257 -8.352,4.46931 -11.7012,7.8185c-3.34919,3.3492 -6.00593,7.3253 -7.8185,11.7013c-1.81258,4.3759 -2.7455,9.066 -2.7455,13.8025l18.0339,0c0,-2.3682 0.4665,-4.7133 1.3727,-6.9013c0.9063,-2.188 2.2347,-4.176 3.9093,-5.8506c1.6746,-1.6746 3.6626,-3.003 5.8506,-3.9093c2.188,-0.9062 4.533,-1.3727 6.9013,-1.3727l0,-18.0339z" fill="#dfeb6a" id="svg_4"/>
  <circle cx="36.0678" cy="36.0678" r="11.2712" fill="#dfeb6a" id="svg_5"/>
  <path d="m47.339,36.0678c0,-1.4801 -0.2915,-2.9458 -0.858,-4.3133c-0.5664,-1.3675 -1.3966,-2.61 -2.4433,-3.6566c-1.0466,-1.0466 -2.2891,-1.8769 -3.6566,-2.4433c-1.3675,-0.5664 -2.8331,-0.858 -4.3133,-0.858c-1.4802,0 -2.9458,0.2916 -4.3133,0.858c-1.3675,0.5664 -2.61,1.3967 -3.6566,2.4433c-1.0467,1.0466 -1.8769,2.2891 -2.4433,3.6566c-0.5664,1.3675 -0.858,2.8332 -0.858,4.3133l11.2712,0l11.2712,0z" fill="white" id="svg_6"/>
 </g>
</svg>