<svg width="33" height="32" xmlns="http://www.w3.org/2000/svg">

 <g>
  <title>background</title>
  <rect fill="none" id="canvas_background" height="402" width="582" y="-1" x="-1"/>
 </g>
 <g>
  <title>Layer 1</title>
  <path id="svg_1" fill="#dfeb6a" d="m31.4966,0.931172c-0.8003,-0.821415 -1.9848,-1.127433 -3.0892,-0.805309l-25.75458,7.489377c-1.16528,0.32373 -1.991216,1.25306 -2.213707,2.43366c-0.227293,1.2015 0.566627,2.7268 1.603857,3.3646l8.05293,4.9494c0.8259,0.5073 1.8919,0.3801 2.5754,-0.3092l9.2214,-9.27882c0.4642,-0.48318 1.2325,-0.48318 1.6967,0c0.4642,0.46708 0.4642,1.22407 0,1.70722l-9.2374,9.2804c-0.6851,0.6878 -0.8131,1.7588 -0.3089,2.5899l4.9204,8.1336c0.5762,0.9664 1.5686,1.514 2.6571,1.514c0.128,0 0.2721,0 0.4001,-0.0161c1.2486,-0.1611 2.241,-1.0147 2.6091,-2.2227l7.6351,-25.72153c0.3362,-1.09522 0.0321,-2.28708 -0.7683,-3.108498"/>
 </g>
</svg>