<svg width="33" height="32" xmlns="http://www.w3.org/2000/svg">

 <g>
  <title>background</title>
  <rect fill="none" id="canvas_background" height="402" width="582" y="-1" x="-1"/>
 </g>
 <g>
  <title>Layer 1</title>
  <path id="svg_1" fill="#dfeb6a" d="m25.4696,19.7122c-0.4144,0.4016 -0.6048,0.9824 -0.5104,1.552l1.4224,7.872c0.12,0.6672 -0.1616,1.3424 -0.72,1.728c-0.5472,0.4 -1.2752,0.448 -1.872,0.128l-7.0864,-3.696c-0.2464,-0.1312 -0.52,-0.2016 -0.8,-0.2096l-0.4336,0c-0.1504,0.0224 -0.2976,0.0704 -0.432,0.144l-7.08801,3.7136c-0.3504,0.176 -0.7472,0.2384 -1.136,0.176c-0.9472,-0.1792 -1.5792,-1.0816 -1.424,-2.0336l1.424,-7.872c0.0944,-0.5744 -0.096,-1.1584 -0.5104,-1.5664l-5.7776,-5.6c-0.4832,-0.4688 -0.6512,-1.1728 -0.4304,-1.808c0.2144,-0.6336 0.7616,-1.096 1.4224,-1.2l7.952,-1.15357c0.60481,-0.0624 1.13601,-0.4304 1.40801,-0.9744l3.504,-7.184c0.0832,-0.16 0.1904,-0.3072 0.32,-0.432l0.144,-0.112c0.0752,-0.0832 0.1616,-0.152 0.2576,-0.208l0.1744,-0.064l0.272,-0.112l0.6736,0c0.6016,0.0624 1.1312,0.4224 1.408,0.96l3.5504,7.152c0.256,0.5232 0.7536,0.8864 1.328,0.9744l7.952,1.15357c0.672,0.096 1.2336,0.56 1.456,1.2c0.2096,0.6416 0.0288,1.3456 -0.464,1.808l-5.984,5.664z"/>
 </g>
</svg>